<svg width="26" height="22" viewBox="0 0 26 22" fill="none" xmlns="http://www.w3.org/2000/svg">
  <path d="M0 6.68556C0 2.99668 3.05084 0 6.80202 0C9.55522 0 11.932 1.61227 13 3.92965C14.068 1.61227 16.4448 0 19.198 0C22.9492 0 26 2.99668 26 6.68556C26 7.46375 25.8643 8.20754 25.6148 8.90405C25.3303 9.69513 24.897 10.4174 24.3542 11.0408C24.1222 11.3074 23.8684 11.5568 23.5926 11.7803L13.2145 21.9054C13.1488 21.9699 13.0657 22 12.9825 22C12.8993 22 12.8162 21.9699 12.7505 21.9054L1.98721 11.402C1.29125 10.7141 0.744106 9.88001 0.398315 8.95134C0.140066 8.24194 0 7.47665 0 6.68556Z" fill="#BA75FF"/>
</svg>