<svg width="80" height="74" viewBox="0 0 80 74" fill="none" xmlns="http://www.w3.org/2000/svg">
<path d="M27.9732 13.9725H12.5914V29.3471V73.382H79.9999V13.9725H27.9732Z" fill="#421E66"/>
<path d="M21.4226 54.6824H5.69385V6.84106H73.5379V54.6824H45.207H21.4226Z" fill="#00254D"/>
<path d="M73.5379 18.2924H5.69385V66.1337H73.5379V18.2924Z" fill="white"/>
<path d="M21.4226 66.1337H5.69385V18.2924H73.5379V66.1337H45.207H21.4226Z" fill="#BA75FF"/>
<path d="M0.513437 10.2757C0.230164 10.2757 0 10.0456 0 9.76231V0.513433C0 0.23016 0.230164 0 0.513437 0H12.4995C12.7827 0 13.0129 0.23016 13.0129 0.513433C13.0129 0.796707 12.7827 1.02687 12.4995 1.02687H1.02687V9.76231C1.02687 10.0456 0.796711 10.2757 0.513437 10.2757Z" fill="#BA75FF"/>
<path d="M34.4353 66.6472H21.4225C21.1392 66.6472 20.9091 66.417 20.9091 66.1337C20.9091 65.8505 21.1392 65.6203 21.4225 65.6203H34.4353C34.7186 65.6203 34.9488 65.8505 34.9488 66.1337C34.9488 66.417 34.7186 66.6472 34.4353 66.6472Z" fill="#00254D"/>
<path d="M73.5378 66.6472H67.4049C67.1216 66.6472 66.8915 66.417 66.8915 66.1337C66.8915 65.8505 67.1216 65.6203 67.4049 65.6203H73.5378C73.8211 65.6203 74.0512 65.8505 74.0512 66.1337C74.0512 66.417 73.8211 66.6472 73.5378 66.6472Z" fill="#00254D"/>
<path d="M14.6792 13.0319C14.9889 11.7126 14.1704 10.3921 12.8511 10.0824C11.5318 9.77273 10.2112 10.5912 9.90153 11.9105C9.59186 13.2298 10.4103 14.5504 11.7297 14.8601C13.049 15.1697 14.3696 14.3512 14.6792 13.0319Z" fill="#0FACF3"/>
<path d="M21.0192 14.3853C22.0761 13.5371 22.2453 11.9926 21.3971 10.9357C20.5488 9.87873 19.0044 9.70955 17.9474 10.5578C16.8905 11.406 16.7213 12.9505 17.5696 14.0074C18.4178 15.0644 19.9622 15.2336 21.0192 14.3853Z" fill="white"/>
<path d="M28.1366 14.4259C29.2141 13.6041 29.4214 12.0643 28.5996 10.9868C27.7778 9.90927 26.2381 9.70195 25.1605 10.5238C24.083 11.3456 23.8757 12.8853 24.6975 13.9628C25.5193 15.0404 27.059 15.2477 28.1366 14.4259Z" fill="white"/>
<path d="M39.2936 49.2471C39.0669 49.2471 38.8828 49.4312 38.8828 49.6578V57.7134C38.8828 57.94 39.0669 58.1242 39.2936 58.1242C39.5202 58.1242 39.7043 57.94 39.7043 57.7134V49.6578C39.7078 49.4312 39.5237 49.2471 39.2936 49.2471Z" fill="white"/>
<path d="M60.2028 49.4029C59.9761 49.4029 59.792 49.587 59.792 49.8136V53.8397C59.792 54.0663 59.9761 54.2504 60.2028 54.2504C60.4294 54.2504 60.6135 54.0663 60.6135 53.8397V49.8136C60.6171 49.587 60.4329 49.4029 60.2028 49.4029Z" fill="white"/>
<path d="M18.3845 49.4029C18.1579 49.4029 17.9738 49.587 17.9738 49.8136V53.8397C17.9738 54.0663 18.1579 54.2504 18.3845 54.2504C18.6111 54.2504 18.7953 54.0663 18.7953 53.8397V49.8136C18.7988 49.587 18.6111 49.4029 18.3845 49.4029Z" fill="white"/>
<path d="M65.3442 50.7484H13.1085C12.5774 50.7484 12.1489 50.32 12.1489 49.7888C12.1489 49.2577 12.5774 48.8293 13.1085 48.8293H65.3442C65.8753 48.8293 66.3037 49.2577 66.3037 49.7888C66.3037 50.32 65.8753 50.7484 65.3442 50.7484Z" fill="white"/>
<path d="M23.0089 43.4683H13.8556C13.236 43.4683 12.7296 42.9655 12.7296 42.3423C12.7296 41.7227 13.2324 41.2163 13.8556 41.2163H23.0089C23.6286 41.2163 24.1349 41.7191 24.1349 42.3423C24.1349 42.962 23.6286 43.4683 23.0089 43.4683Z" fill="#FF5D2B"/>
<path d="M43.9393 43.4683H34.7861C34.1664 43.4683 33.66 42.9655 33.66 42.3423C33.66 41.7227 34.1629 41.2163 34.7861 41.2163H43.9393C44.559 41.2163 45.0653 41.7191 45.0653 42.3423C45.0653 42.962 44.5625 43.4683 43.9393 43.4683Z" fill="#FF5D2B"/>
<path d="M64.7668 43.4683H55.6136C54.9939 43.4683 54.4875 42.9655 54.4875 42.3423C54.4875 41.7227 54.9904 41.2163 55.6136 41.2163H64.7668C65.3865 41.2163 65.8928 41.7191 65.8928 42.3423C65.8893 42.962 65.3865 43.4683 64.7668 43.4683Z" fill="#FF5D2B"/>
<path d="M42.4024 29.078H36.2766C35.9438 29.078 35.6747 29.3471 35.6747 29.68V35.8093C35.6747 36.1422 35.9438 36.4113 36.2766 36.4113H42.4024C42.7353 36.4113 43.0044 36.1422 43.0044 35.8093V29.68C43.0044 29.3471 42.7353 29.078 42.4024 29.078ZM42.1829 35.5862H36.4997V29.9031H42.1829V35.5862Z" fill="white"/>
<path d="M21.5288 29.078H15.3994C15.0666 29.078 14.7975 29.3471 14.7975 29.68V35.8093C14.7975 36.1422 15.0666 36.4113 15.3994 36.4113H21.5288C21.8616 36.4113 22.1307 36.1422 22.1307 35.8093V29.68C22.1307 29.3471 21.8616 29.078 21.5288 29.078ZM21.3092 35.5862H15.626V29.9031H21.3092V35.5862Z" fill="white"/>
<path d="M63.3258 29.078H57.2C56.8671 29.078 56.598 29.3471 56.598 29.68V35.8093C56.598 36.1422 56.8671 36.4113 57.2 36.4113H63.3258C63.6586 36.4113 63.9277 36.1422 63.9277 35.8093V29.68C63.9277 29.3471 63.6586 29.078 63.3258 29.078Z" fill="white"/>
<path d="M59.9301 34.524C59.7636 34.524 59.6043 34.4567 59.491 34.3328L58.1454 32.8916C57.9896 32.7252 58.0003 32.4631 58.1631 32.3109C58.3296 32.1551 58.5916 32.1657 58.7439 32.3286L59.9159 33.5821L64.5333 27.8387C64.6749 27.6617 64.9334 27.6333 65.114 27.775C65.291 27.9166 65.3193 28.1751 65.1777 28.3557L60.3975 34.3009C60.2877 34.4354 60.1248 34.5169 59.9513 34.524C59.9442 34.524 59.9371 34.524 59.9301 34.524Z" fill="#421E66"/>
</svg>
