<svg width="68" height="60" viewBox="0 0 68 60" fill="none" xmlns="http://www.w3.org/2000/svg">
<path d="M15.7288 47.8413H0V0H67.844V47.8413H39.5131H15.7288Z" fill="#00254D"/>
<path d="M67.844 11.4513H0V59.2927H67.844V11.4513Z" fill="white"/>
<path d="M15.7288 59.2927H0V11.4513H67.844V59.2927H39.5131H15.7288Z" fill="#BA75FF"/>
<path d="M15.3254 7.54427C16.3824 6.69603 16.5516 5.15157 15.7034 4.09462C14.8551 3.03768 13.3107 2.8685 12.2537 3.71674C11.1968 4.56498 11.0276 6.10943 11.8758 7.16637C12.7241 8.22331 14.2685 8.3925 15.3254 7.54427Z" fill="white"/>
<path d="M8.98544 6.19088C9.29511 4.87156 8.47663 3.55101 7.1573 3.24134C5.83798 2.93167 4.51742 3.75015 4.20774 5.06946C3.89807 6.38878 4.71656 7.70933 6.03588 8.019C7.35521 8.32867 8.67577 7.51019 8.98544 6.19088Z" fill="#0FACF3"/>
<path d="M22.4429 7.58482C23.5204 6.76301 23.7277 5.22328 22.9059 4.14574C22.0841 3.0682 20.5444 2.86089 19.4668 3.6827C18.3893 4.50451 18.182 6.04423 19.0038 7.12178C19.8256 8.19932 21.3653 8.40663 22.4429 7.58482Z" fill="white"/>
<path d="M57.5855 40.411H48.4322C47.8126 40.411 47.3062 39.9082 47.3062 39.285C47.3062 38.6653 47.809 38.159 48.4322 38.159H57.5855C58.2052 38.159 58.7115 38.6618 58.7115 39.285C58.7115 39.9047 58.2087 40.411 57.5855 40.411Z" fill="#FF5D2B"/>
<rect x="7.30621" y="24.159" width="15" height="24" rx="3" fill="white"/>
<rect x="26.3062" y="24.159" width="15" height="24" rx="3" fill="#421E66"/>
<rect x="45.3062" y="24.159" width="15" height="12" rx="3" fill="white"/>
</svg>
